# xmcd
#
# Track frame offsets:
#	150
#	9421
#	67215
#	126109
#	137234
#	145778
#	158156
#	171388
#	187449
#	201084
#	225768
#	239729
#
# Disc length: 3371 seconds
#
# Revision: 0
# Processed by: cddbd v1.5.2PL0 Copyright (c) Steve Scherf et al.
# Submitted via: dBpowerAMP V4.0
#
DISCID=b20d290c
DTITLE=Various Artist - Best Of Blues
DYEAR=2005
DGENRE=Blues
TTITLE0=Charlie Barnet/Uptown Blues
TTITLE1=George Benson/All Blues
TTITLE2=Bunny Berrigan/Ad-Lib Blues
TTITLE3=Bunny Berrigan and His Orchestra/Beale Street Blues
TTITLE4=Roy Eldridge/Body And Soul
TTITLE5=Duke Ellington/Riding On A Blue Note
TTITLE6=Ella Fitzgerald/Sugar Blues
TTITLE7=Ella Fitzgerald/Limehouse Blues
TTITLE8=Ella Fitzgerald/Under The Spell Of The Blues
TTITLE9=Lionel Hampton/Birth Of The Blues
TTITLE10=Billie Holiday/God Bless The Child
TTITLE11=Billie Holiday/Billie's Blues
EXTD=as per previous - cd 2 of 2\nregards,\nsam
EXTT0=
EXTT1=
EXTT2=
EXTT3=
EXTT4=
EXTT5=
EXTT6=
EXTT7=
EXTT8=
EXTT9=
EXTT10=
EXTT11=
PLAYORDER=
